<mxfile host="app.diagrams.net" modified="2023-09-06T07:46:36.227Z" agent="Mozilla/5.0 (Windows NT 10.0; Win64; x64) AppleWebKit/537.36 (KHTML, like Gecko) Chrome/116.0.0.0 Safari/537.36 Edg/116.0.1938.69" etag="dcwNAX9osdNrum56q6Pf" version="21.7.2" type="github">
  <diagram id="prtHgNgQTEPvFCAcTncT" name="Page-1">
    <mxGraphModel dx="1315" dy="612" grid="1" gridSize="10" guides="1" tooltips="1" connect="1" arrows="1" fold="1" page="1" pageScale="1" pageWidth="827" pageHeight="1169" math="0" shadow="0">
      <root>
        <mxCell id="0" />
        <mxCell id="1" parent="0" />
        <mxCell id="dNxyNK7c78bLwvsdeMH5-19" value="PI0201. Publication Activity" style="swimlane;html=1;childLayout=stackLayout;resizeParent=1;resizeParentMax=0;horizontal=0;startSize=20;horizontalStack=0;" parent="1" vertex="1">
          <mxGeometry x="9" y="40" width="810" height="420" as="geometry" />
        </mxCell>
        <mxCell id="dNxyNK7c78bLwvsdeMH5-20" value="TDPI Office" style="swimlane;html=1;startSize=20;horizontal=0;" parent="dNxyNK7c78bLwvsdeMH5-19" vertex="1">
          <mxGeometry x="20" width="790" height="120" as="geometry" />
        </mxCell>
        <mxCell id="dNxyNK7c78bLwvsdeMH5-25" value="" style="edgeStyle=orthogonalEdgeStyle;rounded=0;orthogonalLoop=1;jettySize=auto;html=1;" parent="dNxyNK7c78bLwvsdeMH5-20" source="dNxyNK7c78bLwvsdeMH5-23" target="dNxyNK7c78bLwvsdeMH5-24" edge="1">
          <mxGeometry relative="1" as="geometry" />
        </mxCell>
        <mxCell id="dNxyNK7c78bLwvsdeMH5-23" value="Start" style="ellipse;whiteSpace=wrap;html=1;fontSize=10;" parent="dNxyNK7c78bLwvsdeMH5-20" vertex="1">
          <mxGeometry x="30" y="40" width="40" height="40" as="geometry" />
        </mxCell>
        <mxCell id="KEsW0Edt6kV23Yd50D3y-4" style="edgeStyle=orthogonalEdgeStyle;rounded=0;orthogonalLoop=1;jettySize=auto;html=1;exitX=1;exitY=0.5;exitDx=0;exitDy=0;entryX=0;entryY=0.5;entryDx=0;entryDy=0;" edge="1" parent="dNxyNK7c78bLwvsdeMH5-20" source="dNxyNK7c78bLwvsdeMH5-24" target="dNxyNK7c78bLwvsdeMH5-30">
          <mxGeometry relative="1" as="geometry" />
        </mxCell>
        <mxCell id="dNxyNK7c78bLwvsdeMH5-24" value="&lt;p style=&quot;margin-top: 0pt; margin-bottom: 0pt; margin-left: 0in; direction: ltr; unicode-bidi: embed; word-break: normal;&quot;&gt;&lt;font style=&quot;font-size: 10px;&quot;&gt;01. Extract KHIR and budget for&lt;br/&gt;Publication&lt;/font&gt;&lt;/p&gt;" style="rounded=0;whiteSpace=wrap;html=1;fontFamily=Helvetica;fontSize=12;fontColor=#000000;align=center;" parent="dNxyNK7c78bLwvsdeMH5-20" vertex="1">
          <mxGeometry x="100" y="30" width="80" height="60" as="geometry" />
        </mxCell>
        <mxCell id="KEsW0Edt6kV23Yd50D3y-10" style="edgeStyle=orthogonalEdgeStyle;rounded=0;orthogonalLoop=1;jettySize=auto;html=1;exitX=1;exitY=0.5;exitDx=0;exitDy=0;entryX=0;entryY=0.5;entryDx=0;entryDy=0;" edge="1" parent="dNxyNK7c78bLwvsdeMH5-20" source="dNxyNK7c78bLwvsdeMH5-30" target="KEsW0Edt6kV23Yd50D3y-5">
          <mxGeometry relative="1" as="geometry" />
        </mxCell>
        <mxCell id="dNxyNK7c78bLwvsdeMH5-30" value="&lt;p style=&quot;margin-top: 0pt; margin-bottom: 0pt; margin-left: 0in; direction: ltr; unicode-bidi: embed; word-break: normal; font-size: 11px;&quot;&gt;02.&lt;br&gt;&lt;span style=&quot;font-family: Calibri;&quot;&gt;Create&lt;/span&gt;&lt;span style=&quot;font-family: Calibri;&quot;&gt; &lt;/span&gt;&lt;span style=&quot;font-family: Calibri;&quot;&gt;worskhop&lt;/span&gt;&lt;span style=&quot;font-family: Calibri;&quot;&gt; calendar&lt;/span&gt;&lt;/p&gt;" style="rounded=0;whiteSpace=wrap;html=1;fontFamily=Helvetica;fontSize=12;fontColor=#000000;align=center;" parent="dNxyNK7c78bLwvsdeMH5-20" vertex="1">
          <mxGeometry x="209" y="30" width="80" height="60" as="geometry" />
        </mxCell>
        <mxCell id="KEsW0Edt6kV23Yd50D3y-5" value="&lt;p style=&quot;margin-top: 0pt; margin-bottom: 0pt; margin-left: 0in; direction: ltr; unicode-bidi: embed; word-break: normal; font-size: 11px;&quot;&gt;03.&lt;br&gt;&lt;font face=&quot;Calibri&quot;&gt;Announce workshop event&lt;/font&gt;&lt;/p&gt;" style="rounded=0;whiteSpace=wrap;html=1;fontFamily=Helvetica;fontSize=12;fontColor=#000000;align=center;" vertex="1" parent="dNxyNK7c78bLwvsdeMH5-20">
          <mxGeometry x="320" y="30" width="80" height="60" as="geometry" />
        </mxCell>
        <mxCell id="KEsW0Edt6kV23Yd50D3y-6" value="&lt;p style=&quot;margin-top: 0pt; margin-bottom: 0pt; margin-left: 0in; direction: ltr; unicode-bidi: embed; word-break: normal; font-size: 11px;&quot;&gt;05. Organize workshop&lt;/p&gt;" style="rounded=0;whiteSpace=wrap;html=1;fontFamily=Helvetica;fontSize=12;fontColor=#000000;align=center;" vertex="1" parent="dNxyNK7c78bLwvsdeMH5-20">
          <mxGeometry x="430" y="30" width="80" height="60" as="geometry" />
        </mxCell>
        <mxCell id="KEsW0Edt6kV23Yd50D3y-14" value="&lt;p style=&quot;margin-top: 0pt; margin-bottom: 0pt; margin-left: 0in; direction: ltr; unicode-bidi: embed; word-break: normal; font-size: 11px;&quot;&gt;07. Follow up progress&lt;/p&gt;" style="rounded=0;whiteSpace=wrap;html=1;fontFamily=Helvetica;fontSize=12;fontColor=#000000;align=center;" vertex="1" parent="dNxyNK7c78bLwvsdeMH5-20">
          <mxGeometry x="530" y="30" width="80" height="60" as="geometry" />
        </mxCell>
        <mxCell id="dNxyNK7c78bLwvsdeMH5-21" value="Head of RG" style="swimlane;html=1;startSize=20;horizontal=0;" parent="dNxyNK7c78bLwvsdeMH5-19" vertex="1">
          <mxGeometry x="20" y="120" width="790" height="120" as="geometry" />
        </mxCell>
        <mxCell id="KEsW0Edt6kV23Yd50D3y-8" value="&lt;p style=&quot;margin-top: 0pt; margin-bottom: 0pt; margin-left: 0in; direction: ltr; unicode-bidi: embed; word-break: normal; font-size: 11px;&quot;&gt;04. Nominate RG Member&lt;/p&gt;" style="rounded=0;whiteSpace=wrap;html=1;fontFamily=Helvetica;fontSize=11;fontColor=#000000;align=center;" vertex="1" parent="dNxyNK7c78bLwvsdeMH5-21">
          <mxGeometry x="100" y="30" width="80" height="60" as="geometry" />
        </mxCell>
        <mxCell id="dNxyNK7c78bLwvsdeMH5-22" value="RG Member" style="swimlane;html=1;startSize=20;horizontal=0;" parent="dNxyNK7c78bLwvsdeMH5-19" vertex="1">
          <mxGeometry x="20" y="240" width="790" height="180" as="geometry" />
        </mxCell>
        <mxCell id="KEsW0Edt6kV23Yd50D3y-9" value="&lt;p style=&quot;margin-top: 0pt; margin-bottom: 0pt; margin-left: 0in; direction: ltr; unicode-bidi: embed; word-break: normal; font-size: 11px;&quot;&gt;06. Join workshop&lt;/p&gt;" style="rounded=0;whiteSpace=wrap;html=1;fontFamily=Helvetica;fontSize=11;fontColor=#000000;align=center;" vertex="1" parent="dNxyNK7c78bLwvsdeMH5-22">
          <mxGeometry x="100" y="20" width="80" height="60" as="geometry" />
        </mxCell>
        <mxCell id="KEsW0Edt6kV23Yd50D3y-24" style="edgeStyle=orthogonalEdgeStyle;rounded=0;orthogonalLoop=1;jettySize=auto;html=1;exitX=1;exitY=0.5;exitDx=0;exitDy=0;" edge="1" parent="dNxyNK7c78bLwvsdeMH5-22" source="KEsW0Edt6kV23Yd50D3y-20">
          <mxGeometry relative="1" as="geometry">
            <mxPoint x="340" y="51.33333333333337" as="targetPoint" />
          </mxGeometry>
        </mxCell>
        <mxCell id="KEsW0Edt6kV23Yd50D3y-20" value="&lt;p style=&quot;margin-top: 0pt; margin-bottom: 0pt; margin-left: 0in; direction: ltr; unicode-bidi: embed; word-break: normal; font-size: 11px;&quot;&gt;08. Publish Article/Update progress&lt;/p&gt;" style="rounded=0;whiteSpace=wrap;html=1;fontFamily=Helvetica;fontSize=11;fontColor=#000000;align=center;" vertex="1" parent="dNxyNK7c78bLwvsdeMH5-22">
          <mxGeometry x="220" y="21" width="80" height="60" as="geometry" />
        </mxCell>
        <mxCell id="KEsW0Edt6kV23Yd50D3y-21" value="&lt;p style=&quot;margin-top: 0pt; margin-bottom: 0pt; margin-left: 0in; direction: ltr; unicode-bidi: embed; word-break: normal; font-size: 11px;&quot;&gt;11. Update Progress Submission&lt;/p&gt;" style="rounded=0;whiteSpace=wrap;html=1;fontFamily=Helvetica;fontSize=11;fontColor=#000000;align=center;" vertex="1" parent="dNxyNK7c78bLwvsdeMH5-22">
          <mxGeometry x="561" y="21" width="80" height="60" as="geometry" />
        </mxCell>
        <mxCell id="KEsW0Edt6kV23Yd50D3y-86" style="edgeStyle=orthogonalEdgeStyle;rounded=0;orthogonalLoop=1;jettySize=auto;html=1;entryX=0;entryY=0.5;entryDx=0;entryDy=0;" edge="1" parent="dNxyNK7c78bLwvsdeMH5-22" source="dNxyNK7c78bLwvsdeMH5-28" target="KEsW0Edt6kV23Yd50D3y-42">
          <mxGeometry relative="1" as="geometry" />
        </mxCell>
        <mxCell id="dNxyNK7c78bLwvsdeMH5-28" value="" style="rhombus;whiteSpace=wrap;html=1;fontFamily=Helvetica;fontSize=12;fontColor=#000000;align=center;" parent="dNxyNK7c78bLwvsdeMH5-22" vertex="1">
          <mxGeometry x="340" y="41" width="20" height="20" as="geometry" />
        </mxCell>
        <mxCell id="KEsW0Edt6kV23Yd50D3y-101" style="edgeStyle=orthogonalEdgeStyle;rounded=0;orthogonalLoop=1;jettySize=auto;html=1;exitX=1;exitY=0.5;exitDx=0;exitDy=0;entryX=0;entryY=0.5;entryDx=0;entryDy=0;" edge="1" parent="dNxyNK7c78bLwvsdeMH5-22" source="KEsW0Edt6kV23Yd50D3y-40" target="dNxyNK7c78bLwvsdeMH5-32">
          <mxGeometry relative="1" as="geometry" />
        </mxCell>
        <mxCell id="KEsW0Edt6kV23Yd50D3y-40" value="&lt;p style=&quot;margin-top: 0pt; margin-bottom: 0pt; margin-left: 0in; direction: ltr; unicode-bidi: embed; word-break: normal; font-size: 11px;&quot;&gt;12. Update publication in RADIS&lt;/p&gt;" style="rounded=0;whiteSpace=wrap;html=1;fontFamily=Helvetica;fontSize=11;fontColor=#000000;align=center;" vertex="1" parent="dNxyNK7c78bLwvsdeMH5-22">
          <mxGeometry x="561" y="110" width="80" height="60" as="geometry" />
        </mxCell>
        <mxCell id="KEsW0Edt6kV23Yd50D3y-30" value="&lt;p style=&quot;margin-top: 0pt; margin-bottom: 0pt; margin-left: 0in; text-align: center; direction: ltr; unicode-bidi: embed; word-break: normal; font-size: 10px;&quot;&gt;&lt;span style=&quot;font-size: 10px; font-family: Calibri; color: black;&quot;&gt;&lt;b&gt;YES&lt;/b&gt;&lt;/span&gt;&lt;/p&gt;" style="text;whiteSpace=wrap;html=1;fontSize=10;" vertex="1" parent="dNxyNK7c78bLwvsdeMH5-22">
          <mxGeometry x="420" y="30" width="36" height="20" as="geometry" />
        </mxCell>
        <mxCell id="KEsW0Edt6kV23Yd50D3y-84" value="&lt;p style=&quot;margin-top: 0pt; margin-bottom: 0pt; margin-left: 0in; text-align: center; direction: ltr; unicode-bidi: embed; word-break: normal; font-size: 10px;&quot;&gt;&lt;span style=&quot;font-size: 10px; font-family: Calibri; color: black;&quot;&gt;9.&amp;nbsp;Require more workshop?&lt;/span&gt;&lt;/p&gt;" style="text;whiteSpace=wrap;html=1;fontSize=10;" vertex="1" parent="dNxyNK7c78bLwvsdeMH5-22">
          <mxGeometry x="300" width="100" height="30" as="geometry" />
        </mxCell>
        <mxCell id="KEsW0Edt6kV23Yd50D3y-93" style="edgeStyle=orthogonalEdgeStyle;rounded=0;orthogonalLoop=1;jettySize=auto;html=1;exitX=1;exitY=0.5;exitDx=0;exitDy=0;entryX=0.5;entryY=0;entryDx=0;entryDy=0;" edge="1" parent="dNxyNK7c78bLwvsdeMH5-22" source="KEsW0Edt6kV23Yd50D3y-42" target="KEsW0Edt6kV23Yd50D3y-21">
          <mxGeometry relative="1" as="geometry">
            <Array as="points">
              <mxPoint x="521" y="100" />
              <mxPoint x="521" y="1" />
              <mxPoint x="601" y="1" />
            </Array>
          </mxGeometry>
        </mxCell>
        <mxCell id="KEsW0Edt6kV23Yd50D3y-96" style="edgeStyle=orthogonalEdgeStyle;rounded=0;orthogonalLoop=1;jettySize=auto;html=1;entryX=0;entryY=0.5;entryDx=0;entryDy=0;" edge="1" parent="dNxyNK7c78bLwvsdeMH5-22" source="KEsW0Edt6kV23Yd50D3y-42" target="KEsW0Edt6kV23Yd50D3y-40">
          <mxGeometry relative="1" as="geometry" />
        </mxCell>
        <mxCell id="KEsW0Edt6kV23Yd50D3y-42" value="" style="rhombus;whiteSpace=wrap;html=1;fontFamily=Helvetica;fontSize=12;fontColor=#000000;align=center;" vertex="1" parent="dNxyNK7c78bLwvsdeMH5-22">
          <mxGeometry x="400" y="90" width="20" height="20" as="geometry" />
        </mxCell>
        <mxCell id="KEsW0Edt6kV23Yd50D3y-85" value="&lt;p style=&quot;margin-top: 0pt; margin-bottom: 0pt; margin-left: 0in; text-align: center; direction: ltr; unicode-bidi: embed; word-break: normal; font-size: 10px;&quot;&gt;&lt;span style=&quot;font-size: 10px; font-family: Calibri; color: black;&quot;&gt;&lt;b&gt;NO&lt;/b&gt;&lt;/span&gt;&lt;/p&gt;" style="text;whiteSpace=wrap;html=1;fontSize=10;" vertex="1" parent="dNxyNK7c78bLwvsdeMH5-22">
          <mxGeometry x="384" y="61" width="36" height="20" as="geometry" />
        </mxCell>
        <mxCell id="dNxyNK7c78bLwvsdeMH5-32" value="End" style="ellipse;whiteSpace=wrap;html=1;" parent="dNxyNK7c78bLwvsdeMH5-22" vertex="1">
          <mxGeometry x="691" y="120" width="40" height="40" as="geometry" />
        </mxCell>
        <mxCell id="KEsW0Edt6kV23Yd50D3y-97" value="&lt;p style=&quot;margin-top: 0pt; margin-bottom: 0pt; margin-left: 0in; text-align: center; direction: ltr; unicode-bidi: embed; word-break: normal; font-size: 10px;&quot;&gt;&lt;span style=&quot;font-size: 10px; font-family: Calibri; color: black;&quot;&gt;&lt;b&gt;YES&lt;/b&gt;&lt;/span&gt;&lt;/p&gt;" style="text;whiteSpace=wrap;html=1;fontSize=10;" vertex="1" parent="dNxyNK7c78bLwvsdeMH5-22">
          <mxGeometry x="491" y="140" width="36" height="20" as="geometry" />
        </mxCell>
        <mxCell id="KEsW0Edt6kV23Yd50D3y-99" value="&lt;p style=&quot;margin-top: 0pt; margin-bottom: 0pt; margin-left: 0in; text-align: center; direction: ltr; unicode-bidi: embed; word-break: normal; font-size: 10px;&quot;&gt;&lt;span style=&quot;font-size: 10px; font-family: Calibri; color: black;&quot;&gt;&lt;b&gt;NO&lt;/b&gt;&lt;/span&gt;&lt;/p&gt;" style="text;whiteSpace=wrap;html=1;fontSize=10;" vertex="1" parent="dNxyNK7c78bLwvsdeMH5-22">
          <mxGeometry x="525" y="80" width="36" height="20" as="geometry" />
        </mxCell>
        <mxCell id="KEsW0Edt6kV23Yd50D3y-95" value="&lt;p style=&quot;margin-top: 0pt; margin-bottom: 0pt; margin-left: 0in; text-align: center; direction: ltr; unicode-bidi: embed; word-break: normal; font-size: 10px;&quot;&gt;&lt;span style=&quot;font-size: 10px; font-family: Calibri; color: black;&quot;&gt;10. Article published?&lt;/span&gt;&lt;/p&gt;" style="text;whiteSpace=wrap;html=1;fontSize=10;" vertex="1" parent="dNxyNK7c78bLwvsdeMH5-22">
          <mxGeometry x="380" y="110" width="60" height="60" as="geometry" />
        </mxCell>
        <mxCell id="KEsW0Edt6kV23Yd50D3y-11" style="edgeStyle=orthogonalEdgeStyle;rounded=0;orthogonalLoop=1;jettySize=auto;html=1;exitX=0.5;exitY=1;exitDx=0;exitDy=0;entryX=0.5;entryY=0;entryDx=0;entryDy=0;" edge="1" parent="dNxyNK7c78bLwvsdeMH5-19" source="KEsW0Edt6kV23Yd50D3y-5" target="KEsW0Edt6kV23Yd50D3y-8">
          <mxGeometry relative="1" as="geometry">
            <Array as="points">
              <mxPoint x="380" y="130" />
              <mxPoint x="160" y="130" />
            </Array>
          </mxGeometry>
        </mxCell>
        <mxCell id="KEsW0Edt6kV23Yd50D3y-12" style="edgeStyle=orthogonalEdgeStyle;rounded=0;orthogonalLoop=1;jettySize=auto;html=1;entryX=0.5;entryY=1;entryDx=0;entryDy=0;" edge="1" parent="dNxyNK7c78bLwvsdeMH5-19" target="KEsW0Edt6kV23Yd50D3y-6">
          <mxGeometry relative="1" as="geometry">
            <mxPoint x="180" y="150" as="sourcePoint" />
            <Array as="points">
              <mxPoint x="180" y="110" />
              <mxPoint x="490" y="110" />
            </Array>
          </mxGeometry>
        </mxCell>
        <mxCell id="KEsW0Edt6kV23Yd50D3y-13" style="edgeStyle=orthogonalEdgeStyle;rounded=0;orthogonalLoop=1;jettySize=auto;html=1;exitX=0.25;exitY=1;exitDx=0;exitDy=0;entryX=0.5;entryY=0;entryDx=0;entryDy=0;" edge="1" parent="dNxyNK7c78bLwvsdeMH5-19" source="KEsW0Edt6kV23Yd50D3y-6" target="KEsW0Edt6kV23Yd50D3y-9">
          <mxGeometry relative="1" as="geometry">
            <Array as="points">
              <mxPoint x="470" y="140" />
              <mxPoint x="270" y="140" />
              <mxPoint x="270" y="230" />
              <mxPoint x="160" y="230" />
            </Array>
          </mxGeometry>
        </mxCell>
        <mxCell id="KEsW0Edt6kV23Yd50D3y-19" style="edgeStyle=orthogonalEdgeStyle;rounded=0;orthogonalLoop=1;jettySize=auto;html=1;exitX=0.75;exitY=0;exitDx=0;exitDy=0;entryX=0.25;entryY=1;entryDx=0;entryDy=0;" edge="1" parent="dNxyNK7c78bLwvsdeMH5-19" source="KEsW0Edt6kV23Yd50D3y-9" target="KEsW0Edt6kV23Yd50D3y-14">
          <mxGeometry relative="1" as="geometry">
            <Array as="points">
              <mxPoint x="180" y="220" />
              <mxPoint x="570" y="220" />
            </Array>
          </mxGeometry>
        </mxCell>
        <mxCell id="KEsW0Edt6kV23Yd50D3y-23" style="edgeStyle=orthogonalEdgeStyle;rounded=0;orthogonalLoop=1;jettySize=auto;html=1;exitX=0.5;exitY=1;exitDx=0;exitDy=0;entryX=0.5;entryY=0;entryDx=0;entryDy=0;" edge="1" parent="dNxyNK7c78bLwvsdeMH5-19" source="KEsW0Edt6kV23Yd50D3y-14" target="KEsW0Edt6kV23Yd50D3y-20">
          <mxGeometry relative="1" as="geometry" />
        </mxCell>
        <mxCell id="KEsW0Edt6kV23Yd50D3y-72" style="edgeStyle=orthogonalEdgeStyle;rounded=0;orthogonalLoop=1;jettySize=auto;html=1;exitX=1;exitY=0.5;exitDx=0;exitDy=0;entryX=0.75;entryY=1;entryDx=0;entryDy=0;" edge="1" parent="dNxyNK7c78bLwvsdeMH5-19" source="dNxyNK7c78bLwvsdeMH5-28" target="KEsW0Edt6kV23Yd50D3y-6">
          <mxGeometry relative="1" as="geometry" />
        </mxCell>
        <mxCell id="KEsW0Edt6kV23Yd50D3y-26" style="edgeStyle=orthogonalEdgeStyle;rounded=0;orthogonalLoop=1;jettySize=auto;html=1;exitX=0.5;exitY=1;exitDx=0;exitDy=0;" edge="1" parent="1">
          <mxGeometry relative="1" as="geometry">
            <mxPoint x="780" y="280" as="sourcePoint" />
            <mxPoint x="780" y="280" as="targetPoint" />
          </mxGeometry>
        </mxCell>
      </root>
    </mxGraphModel>
  </diagram>
</mxfile>
